<svg width="212" height="198" viewBox="0 0 212 198" fill="none" xmlns="http://www.w3.org/2000/svg">
<path fill-rule="evenodd" clip-rule="evenodd" d="M206 100C206 107.13 205.254 114.086 203.835 120.793L157.457 72L144.778 85.3383L122.457 63L115.32 70.1421L101.457 52L70.0757 93.0671L55.4567 79L8.85899 123.839C6.99064 116.199 6 108.215 6 100C6 44.7715 50.7715 0 106 0C161.228 0 206 44.7715 206 100Z" fill="#C4C4C4"/>
<path fill-rule="evenodd" clip-rule="evenodd" d="M206 100C206 107.13 205.254 114.086 203.835 120.793L157.457 72L144.778 85.3383L122.457 63L115.32 70.1421L101.457 52L70.0757 93.0671L55.4567 79L8.85899 123.839C6.99064 116.199 6 108.215 6 100C6 44.7715 50.7715 0 106 0C161.228 0 206 44.7715 206 100Z" fill="url(#paint0_linear)"/>
<path d="M18.812 92.4H24.018V119H18.812V92.4ZM43.4799 119V108.208C43.4799 106.663 43.2519 105.548 42.7959 104.864C42.3653 104.18 41.6179 103.838 40.5539 103.838C39.6166 103.838 38.8186 104.117 38.1599 104.674C37.5266 105.206 37.0706 105.877 36.7919 106.688V119H31.8519V100H35.7659L36.3359 102.508H36.4879C37.0706 101.697 37.8433 100.988 38.8059 100.38C39.7686 99.772 41.0099 99.468 42.5299 99.468C43.4673 99.468 44.3033 99.5947 45.0379 99.848C45.7726 100.101 46.3933 100.519 46.8999 101.102C47.4066 101.685 47.7866 102.483 48.0399 103.496C48.2933 104.484 48.4199 105.713 48.4199 107.182V119H43.4799ZM67.037 119V108.208C67.037 106.663 66.809 105.548 66.353 104.864C65.9223 104.18 65.175 103.838 64.111 103.838C63.1736 103.838 62.3756 104.117 61.717 104.674C61.0836 105.206 60.6276 105.877 60.349 106.688V119H55.409V100H59.323L59.893 102.508H60.045C60.6276 101.697 61.4003 100.988 62.363 100.38C63.3256 99.772 64.567 99.468 66.087 99.468C67.0243 99.468 67.8603 99.5947 68.595 99.848C69.3296 100.101 69.9503 100.519 70.457 101.102C70.9636 101.685 71.3436 102.483 71.597 103.496C71.8503 104.484 71.977 105.713 71.977 107.182V119H67.037ZM86.832 113.756C86.832 113.249 86.6167 112.844 86.186 112.54C85.7553 112.236 85.2233 111.957 84.59 111.704C83.9567 111.451 83.26 111.197 82.5 110.944C81.74 110.665 81.0433 110.298 80.41 109.842C79.7767 109.361 79.2447 108.765 78.814 108.056C78.3833 107.321 78.168 106.384 78.168 105.244C78.168 103.369 78.7253 101.938 79.84 100.95C80.9547 99.962 82.5633 99.468 84.666 99.468C86.11 99.468 87.4147 99.62 88.58 99.924C89.7453 100.228 90.6573 100.57 91.316 100.95L90.214 104.522C89.6313 104.294 88.8967 104.053 88.01 103.8C87.1233 103.547 86.224 103.42 85.312 103.42C83.8427 103.42 83.108 103.99 83.108 105.13C83.108 105.586 83.3233 105.953 83.754 106.232C84.1847 106.511 84.7167 106.777 85.35 107.03C85.9833 107.258 86.68 107.511 87.44 107.79C88.2 108.069 88.8967 108.436 89.53 108.892C90.1633 109.323 90.6953 109.893 91.126 110.602C91.5567 111.311 91.772 112.223 91.772 113.338C91.772 115.263 91.1513 116.783 89.91 117.898C88.694 118.987 86.8573 119.532 84.4 119.532C83.0573 119.532 81.7907 119.355 80.6 119C79.4347 118.671 78.4847 118.278 77.75 117.822L79.118 114.136C79.7007 114.465 80.4733 114.795 81.436 115.124C82.3987 115.428 83.3867 115.58 84.4 115.58C85.1347 115.58 85.7173 115.441 86.148 115.162C86.604 114.883 86.832 114.415 86.832 113.756ZM97.8473 92.4H102.787V101.52H102.939C103.471 100.912 104.155 100.431 104.991 100.076C105.827 99.7213 106.752 99.544 107.765 99.544C110.045 99.544 111.781 100.329 112.971 101.9C114.187 103.445 114.795 105.814 114.795 109.006C114.795 112.426 113.947 115.023 112.249 116.796C110.577 118.569 108.272 119.456 105.333 119.456C103.712 119.456 102.23 119.317 100.887 119.038C99.5446 118.785 98.5313 118.493 97.8473 118.164V92.4ZM106.321 103.724C105.409 103.724 104.662 103.965 104.079 104.446C103.522 104.902 103.091 105.573 102.787 106.46V114.744C103.193 114.947 103.623 115.086 104.079 115.162C104.561 115.238 105.067 115.276 105.599 115.276C106.942 115.276 107.955 114.795 108.639 113.832C109.349 112.844 109.703 111.286 109.703 109.158C109.703 105.535 108.576 103.724 106.321 103.724ZM131.558 104.636C130.773 104.357 130.064 104.218 129.43 104.218C128.544 104.218 127.796 104.459 127.188 104.94C126.606 105.396 126.213 105.991 126.01 106.726V119H121.07V100H124.908L125.478 102.508H125.63C126.061 101.571 126.644 100.849 127.378 100.342C128.113 99.8353 128.974 99.582 129.962 99.582C130.621 99.582 131.368 99.7213 132.204 100L131.558 104.636ZM141.993 100V110.792C141.993 112.337 142.17 113.452 142.525 114.136C142.905 114.82 143.627 115.162 144.691 115.162C145.628 115.162 146.401 114.883 147.009 114.326C147.642 113.769 148.111 113.085 148.415 112.274V100H153.355V113.224C153.355 114.263 153.405 115.289 153.507 116.302C153.608 117.29 153.76 118.189 153.963 119H150.239L149.365 116.188H149.213C148.63 117.151 147.819 117.949 146.781 118.582C145.742 119.215 144.513 119.532 143.095 119.532C142.132 119.532 141.271 119.405 140.511 119.152C139.751 118.899 139.117 118.481 138.611 117.898C138.104 117.315 137.711 116.53 137.433 115.542C137.179 114.554 137.053 113.313 137.053 111.818V100H141.993ZM173.992 117.822C173.232 118.379 172.307 118.797 171.218 119.076C170.154 119.38 169.052 119.532 167.912 119.532C166.392 119.532 165.1 119.291 164.036 118.81C162.997 118.329 162.148 117.657 161.49 116.796C160.831 115.909 160.35 114.845 160.046 113.604C159.767 112.363 159.628 110.995 159.628 109.5C159.628 106.283 160.35 103.813 161.794 102.09C163.238 100.342 165.34 99.468 168.102 99.468C169.495 99.468 170.61 99.582 171.446 99.81C172.307 100.038 173.08 100.329 173.764 100.684L172.586 104.712C172.003 104.433 171.42 104.218 170.838 104.066C170.28 103.914 169.634 103.838 168.9 103.838C167.532 103.838 166.493 104.294 165.784 105.206C165.074 106.093 164.72 107.524 164.72 109.5C164.72 110.311 164.808 111.058 164.986 111.742C165.163 112.426 165.429 113.021 165.784 113.528C166.138 114.035 166.594 114.44 167.152 114.744C167.734 115.023 168.406 115.162 169.166 115.162C170.002 115.162 170.711 115.061 171.294 114.858C171.876 114.63 172.396 114.364 172.852 114.06L173.992 117.822ZM186.099 111.134H184.769V119H179.829V92.4H184.769V108.094L185.909 107.562L190.241 100H195.675L191.115 107.22L189.177 108.664L191.267 110.146L196.397 119H190.735L186.099 111.134Z" fill="black"/>
<path d="M26.4999 130.441C11.9999 133.441 0 144.941 0 144.941C0 144.941 9.5 144.441 12 145.941C14.5 147.441 19 150.441 37 170.941C55 191.441 80 194.941 89.5 196.441C99 197.941 114.5 198.441 128 196.441C141.5 194.441 143 193.441 153 188.441C163 183.441 165.5 177.941 173 174.441C180.5 170.941 186.423 170.941 193 166.441C199.577 161.941 212 147.941 212 147.941C212 147.941 193.5 166.441 162.5 164.941C131.5 163.441 114.5 150.941 114.5 150.941C114.5 150.941 149 160.441 170 160.441C191 160.441 203.5 141.941 203.5 141.941C203.5 141.941 193 154.441 167.5 153.441C142 152.441 131.5 147.941 131.5 147.941C131.5 147.941 106.5 140.191 96.9999 137.441C87.5 134.691 61.4999 130.441 61.4999 130.441C46.4999 126.941 40.9999 127.441 26.4999 130.441Z" fill="url(#paint1_linear)"/>
<defs>
<linearGradient id="paint0_linear" x1="113.619" y1="21" x2="4.18914" y2="108.242" gradientUnits="userSpaceOnUse">
<stop stop-color="#F9F137"/>
<stop offset="1" stop-color="#FB1304" stop-opacity="0.91"/>
</linearGradient>
<linearGradient id="paint1_linear" x1="-1.20943e-06" y1="150.5" x2="221.5" y2="150.5" gradientUnits="userSpaceOnUse">
<stop stop-color="#2A3D8F"/>
<stop offset="1" stop-color="#5DC4F5"/>
</linearGradient>
</defs>
</svg>
